<?xml version="1.0" encoding="UTF-8" standalone="no"?>
<!-- Created with Inkscape (http://www.inkscape.org/) -->

<svg
   xmlns:dc="http://purl.org/dc/elements/1.1/"
   xmlns:cc="http://creativecommons.org/ns#"
   xmlns:rdf="http://www.w3.org/1999/02/22-rdf-syntax-ns#"
   xmlns:svg="http://www.w3.org/2000/svg"
   xmlns="http://www.w3.org/2000/svg"
   xmlns:xlink="http://www.w3.org/1999/xlink"
   xmlns:sodipodi="http://sodipodi.sourceforge.net/DTD/sodipodi-0.dtd"
   xmlns:inkscape="http://www.inkscape.org/namespaces/inkscape"
   width="210mm"
   height="297mm"
   viewBox="0 0 210 297"
   version="1.1"
   id="svg8"
   inkscape:version="0.92.4 (5da689c313, 2019-01-14)"
   sodipodi:docname="DiscosRanurados.svg">
  <defs
     id="defs2" />
  <sodipodi:namedview
     id="base"
     pagecolor="#ffffff"
     bordercolor="#666666"
     borderopacity="1.0"
     inkscape:pageopacity="0.0"
     inkscape:pageshadow="2"
     inkscape:zoom="0.5"
     inkscape:cx="-110.86652"
     inkscape:cy="541.51952"
     inkscape:document-units="mm"
     inkscape:current-layer="layer1"
     showgrid="true"
     inkscape:snap-bbox="true"
     inkscape:snap-global="true"
     showguides="true"
     inkscape:guide-bbox="true"
     inkscape:lockguides="false"
     inkscape:snap-grids="true"
     inkscape:snap-to-guides="true"
     inkscape:window-width="1920"
     inkscape:window-height="1080"
     inkscape:window-x="-9"
     inkscape:window-y="-35"
     inkscape:window-maximized="1">
    <inkscape:grid
       type="xygrid"
       id="grid34"
       units="mm"
       spacingx="0.1"
       spacingy="0.1" />
    <sodipodi:guide
       position="25.5,40"
       orientation="0,1"
       id="guide3751"
       inkscape:locked="false" />
    <sodipodi:guide
       position="-2.5,10"
       orientation="0,1"
       id="guide3753"
       inkscape:locked="false" />
    <sodipodi:guide
       position="37.999999,58.000002"
       orientation="0,1"
       id="guide4185"
       inkscape:locked="false" />
    <sodipodi:guide
       position="38.999999,45.500001"
       orientation="0,1"
       id="guide4187"
       inkscape:locked="false" />
    <sodipodi:guide
       position="37.999999,58.000003"
       orientation="1,0"
       id="guide4189"
       inkscape:locked="false" />
    <sodipodi:guide
       position="41.999999,58.000003"
       orientation="1,0"
       id="guide4191"
       inkscape:locked="false" />
  </sodipodi:namedview>
  <metadata
     id="metadata5">
    <rdf:RDF>
      <cc:Work
         rdf:about="">
        <dc:format>image/svg+xml</dc:format>
        <dc:type
           rdf:resource="http://purl.org/dc/dcmitype/StillImage" />
        <dc:title></dc:title>
      </cc:Work>
    </rdf:RDF>
  </metadata>
  <g
     inkscape:label="Capa 1"
     inkscape:groupmode="layer"
     id="layer1">
    <a
       id="a5475"
       transform="matrix(0.49630478,0,0,0.49532822,-20.343167,166.08262)"
       inkscape:tile-cx="19.991855"
       inkscape:tile-cy="277.02779"
       inkscape:tile-w="19.983711"
       inkscape:tile-h="19.94439"
       inkscape:tile-x0="9.9999996"
       inkscape:tile-y0="267.0556">
      <g
         transform="translate(41.138172,-32.88433)"
         id="g5107">
        <circle
           style="fill:#ffffff;fill-opacity:1;stroke:#000000;stroke-width:0.26499999;stroke-miterlimit:4;stroke-dasharray:none;stroke-opacity:1"
           id="path10"
           cx="40.1325"
           cy="256.86749"
           r="20" />
        <ellipse
           inkscape:tile-y0="246.73499"
           inkscape:tile-x0="29.999999"
           cy="163.74599"
           cx="-203.0909"
           id="use3885"
           style="fill:#ffffff;fill-opacity:1;stroke:#000000;stroke-width:0.06471369;stroke-miterlimit:4;stroke-dasharray:none;stroke-opacity:1"
           rx="2.4378574"
           ry="2.4462018"
           transform="matrix(0.50256496,-0.86453945,0.86749871,0.49743944,0,0)" />
        <path
           style="fill:none;stroke:#000000;stroke-width:0.2306584px;stroke-linecap:butt;stroke-linejoin:miter;stroke-opacity:1"
           d="m 37.999998,239 h 3.999999 L 41,248.5 h -2.000002 z"
           id="path4197"
           inkscape:connector-curvature="0"
           inkscape:transform-center-y="-13.250711"
           inkscape:tile-cx="39.999997"
           inkscape:tile-cy="257.00071"
           inkscape:tile-w="4.2562115"
           inkscape:tile-h="9.7306582"
           inkscape:tile-x0="37.871891"
           inkscape:tile-y0="238.88467" />
        <use
           x="0"
           y="0"
           inkscape:tiled-clone-of="#path4197"
           xlink:href="#path4197"
           id="use4255"
           inkscape:transform-center-x="-29.416665"
           inkscape:transform-center-y="175.7519"
           width="100%"
           height="100%" />
        <use
           x="0"
           y="0"
           inkscape:tiled-clone-of="#path4197"
           xlink:href="#path4197"
           transform="rotate(-150,39.999997,257.00071)"
           id="use4257"
           inkscape:transform-center-x="-22.358296"
           inkscape:transform-center-y="200.72806"
           width="100%"
           height="100%" />
        <use
           x="0"
           y="0"
           inkscape:tiled-clone-of="#path4197"
           xlink:href="#path4197"
           transform="rotate(60,39.999997,257.00071)"
           id="use4259"
           inkscape:transform-center-x="-41.142116"
           inkscape:transform-center-y="181.94424"
           width="100%"
           height="100%" />
        <use
           x="0"
           y="0"
           inkscape:tiled-clone-of="#path4197"
           xlink:href="#path4197"
           transform="rotate(-90,39.999997,257.00071)"
           id="use4261"
           inkscape:transform-center-x="-16.165955"
           inkscape:transform-center-y="189.00261"
           width="100%"
           height="100%" />
        <use
           x="0"
           y="0"
           inkscape:tiled-clone-of="#path4197"
           xlink:href="#path4197"
           transform="rotate(120,39.999997,257.00071)"
           id="use4263"
           inkscape:transform-center-x="-41.142115"
           inkscape:transform-center-y="196.06097"
           width="100%"
           height="100%" />
        <use
           x="0"
           y="0"
           inkscape:tiled-clone-of="#path4197"
           xlink:href="#path4197"
           transform="rotate(-30,39.999997,257.00071)"
           id="use4265"
           inkscape:transform-center-x="-22.358299"
           inkscape:transform-center-y="177.27716"
           width="100%"
           height="100%" />
        <use
           x="0"
           y="0"
           inkscape:tiled-clone-of="#path4197"
           xlink:href="#path4197"
           transform="rotate(180,39.999997,257.00071)"
           id="use4267"
           inkscape:transform-center-x="-29.416664"
           inkscape:transform-center-y="202.25332"
           width="100%"
           height="100%" />
        <use
           x="0"
           y="0"
           inkscape:tiled-clone-of="#path4197"
           xlink:href="#path4197"
           transform="rotate(30,39.999997,257.00071)"
           id="use4269"
           inkscape:transform-center-x="-36.475033"
           inkscape:transform-center-y="177.27716"
           width="100%"
           height="100%" />
        <use
           x="0"
           y="0"
           inkscape:tiled-clone-of="#path4197"
           xlink:href="#path4197"
           transform="rotate(-120,39.999997,257.00071)"
           id="use4271"
           inkscape:transform-center-x="-17.691213"
           inkscape:transform-center-y="196.06097"
           width="100%"
           height="100%" />
        <use
           x="0"
           y="0"
           inkscape:tiled-clone-of="#path4197"
           xlink:href="#path4197"
           transform="rotate(90,39.999997,257.00071)"
           id="use4273"
           inkscape:transform-center-x="-42.667375"
           inkscape:transform-center-y="189.00261"
           width="100%"
           height="100%" />
        <use
           x="0"
           y="0"
           inkscape:tiled-clone-of="#path4197"
           xlink:href="#path4197"
           transform="rotate(-60,39.999997,257.00071)"
           id="use4275"
           inkscape:transform-center-x="-17.691214"
           inkscape:transform-center-y="181.94424"
           width="100%"
           height="100%" />
        <use
           x="0"
           y="0"
           inkscape:tiled-clone-of="#path4197"
           xlink:href="#path4197"
           transform="rotate(150,39.999997,257.00071)"
           id="use4277"
           inkscape:transform-center-x="-36.475031"
           inkscape:transform-center-y="200.72806"
           width="100%"
           height="100%" />
        <a
           id="a4607">
          <path
             transform="scale(0.26458333)"
             inkscape:connector-curvature="0"
             id="path4279"
             d="m 146.7582,1045.5414 c -20.00605,-1.2638 -39.25606,-10.9202 -52.039988,-26.1049 -19.475119,-23.13241 -23.426744,-54.91102 -10.157141,-81.68278 11.286406,-22.77061 32.736199,-38.03142 57.954489,-41.23268 5.67929,-0.72094 15.83065,-0.55091 21.2132,0.3553 11.96057,2.0137 23.41766,6.93345 33.1618,14.2399 3.47814,2.60802 10.15205,9.05697 12.87281,12.4389 8.54495,10.62145 13.98677,22.97962 16.06356,36.47967 0.85095,5.53158 0.85708,16.01308 0.0126,21.53276 -1.24384,8.12984 -3.71076,15.84655 -7.36965,23.05273 -13.63941,26.8629 -41.60817,42.8228 -71.71167,40.9211 z m 12.52039,-6.7866 c -0.25368,-1.7874 -3.68156,-34.7435 -3.68156,-35.395 0,-0.5054 -0.56163,-0.579 -4.41941,-0.579 -3.85778,0 -4.41942,0.074 -4.41942,0.579 0,0.6515 -3.42788,33.6076 -3.68155,35.395 l -0.16308,1.1491 h 8.26405 8.26405 z m -27.68233,-20.9447 c 4.06227,-9.1376 7.33858,-16.7559 7.28069,-16.9295 -0.1652,-0.4956 -7.11873,-4.4317 -7.36434,-4.16864 -1.0025,1.07378 -21.28483,29.33554 -21.31192,29.69634 -0.04,0.5325 12.7854,8.2008 13.52792,8.0884 0.26879,-0.041 3.74643,-7.4165 7.86765,-16.6866 z m 54.05281,12.9197 c 3.6508,-2.137 6.5246,-4.0413 6.50422,-4.3099 -0.0281,-0.3701 -20.28961,-28.62491 -21.30646,-29.712 -0.23886,-0.25536 -7.21785,3.7206 -7.37891,4.2038 -0.0526,0.1577 3.01957,7.2852 6.82702,15.8388 3.80745,8.5536 7.14107,16.0691 7.40803,16.701 0.26697,0.632 0.69239,1.1396 0.94538,1.128 0.25299,-0.012 3.40332,-1.744 7.00072,-3.8497 z m -74.308,-29.1619 c 8.00662,-5.82011 14.55748,-10.67361 14.55748,-10.78553 0,-0.6261 -4.18049,-7.25583 -4.52903,-7.18248 -0.62731,0.13203 -33.084048,14.61384 -33.384108,14.89559 -0.142836,0.13412 1.344769,3.02262 3.30579,6.41882 4.662159,8.0743 4.501583,7.8349 5.038238,7.5103 0.249785,-0.1511 7.00502,-5.0366 15.01163,-10.8567 z m 99.54103,3.7008 c 2.06202,-3.5902 3.63187,-6.64445 3.48857,-6.78718 -0.27869,-0.27757 -32.71004,-14.73957 -33.37695,-14.88366 -0.40149,-0.0867 -4.61188,6.76758 -4.44862,7.24216 0.0486,0.14127 6.77052,5.10719 14.9376,11.03538 11.41297,8.2843 14.94193,10.6793 15.24977,10.3498 0.22028,-0.2359 2.08762,-3.3663 4.14963,-6.9565 z m -55.8154,-25.2401 c 3.60769,-1.68356 5.68122,-5.18421 5.4143,-9.14066 -0.17677,-2.62012 -0.92675,-4.33719 -2.6448,-6.05523 -1.83048,-1.83049 -3.44941,-2.48968 -6.48181,-2.63927 -2.37558,-0.11719 -2.85342,-0.0249 -4.58973,0.88632 -3.67095,1.92657 -5.76664,6.0923 -4.99583,9.93048 0.98476,4.90348 4.43471,7.77154 9.40879,7.82186 1.51612,0.0153 2.62565,-0.2139 3.88908,-0.8035 z m -53.20978,-2.46444 17.50089,-1.84381 0.0991,-4.3062 0.0991,-4.3062 -1.15978,-0.19653 c -1.15511,-0.19573 -34.895363,-3.72863 -35.609578,-3.72863 -0.253714,0 -0.375219,2.63326 -0.375219,8.13173 v 8.13173 l 0.972272,-0.0191 c 0.534749,-0.0105 8.847673,-0.84885 18.473165,-1.86295 z m 118.08683,-6.24964 c 0,-5.79044 -0.11458,-8.13173 -0.39796,-8.13173 -0.56583,0 -33.40955,3.47247 -35.22254,3.72397 l -1.5026,0.20845 v 4.22097 c 0,2.32154 0.0398,4.23359 0.0884,4.24901 0.37442,0.11871 34.67869,3.78887 35.7089,3.82044 l 1.32582,0.0406 z m -96.16652,-15.47568 c 1.0695,-1.89169 1.94454,-3.6259 1.94454,-3.85382 0,-0.57956 -29.635708,-22.05434 -29.974739,-21.72044 -0.794815,0.78276 -7.950647,13.69058 -7.719341,13.92428 0.258543,0.26123 33.25789,15.05871 33.62822,15.07948 0.0972,0.005 1.05182,-1.53782 2.12132,-3.4295 z m 74.24621,-4.22878 c 9.04213,-4.0084 16.49841,-7.3319 16.56953,-7.38555 0.1503,-0.11341 -7.70639,-13.86543 -8.03889,-14.07093 -0.12253,-0.0757 -6.66615,4.55342 -14.54137,10.28701 -7.87523,5.73358 -14.61681,10.63962 -14.98131,10.90231 -0.63011,0.45413 -0.56055,0.66124 1.41422,4.21066 1.50679,2.70829 2.22251,3.67972 2.60726,3.53877 0.29168,-0.10685 7.92843,-3.47387 16.97056,-7.48227 z m -61.3992,-8.23235 c 1.13499,-0.63619 2.13228,-1.33562 2.21618,-1.55429 0.24131,-0.62883 -14.60665,-33.61818 -15.13098,-33.61818 -0.95195,0 -13.76607,7.68055 -13.58806,8.14444 0.0968,0.25235 4.9872,7.07332 10.86748,15.1577 l 10.69141,14.69886 1.44017,-0.83591 c 0.79209,-0.45975 2.3688,-1.35644 3.5038,-1.99262 z m 45.13678,-12.34881 c 5.69445,-7.86469 10.37048,-14.51392 10.39117,-14.77606 0.0385,-0.4883 -13.10159,-8.32298 -13.6516,-8.13965 -0.29009,0.0967 -15.12538,33.02786 -15.12538,33.57511 0,0.14588 1.6295,1.21903 3.62111,2.38477 2.80151,1.63978 3.71053,2.02171 4.01613,1.6874 0.21726,-0.23767 5.05411,-6.86687 10.74857,-14.73157 z m -26.16399,8.35243 c 0,-0.65423 3.46406,-33.7102 3.70241,-35.33034 l 0.19504,-1.32583 h -8.31686 -8.31687 l 0.19505,1.32583 c 0.23834,1.62014 3.7024,34.67611 3.7024,35.33034 0,0.36198 0.99342,0.46694 4.41942,0.46694 3.42599,0 4.41941,-0.10496 4.41941,-0.46694 z"
             style="fill:#000000;fill-opacity:1;stroke:#000000;stroke-width:0.35411015;stroke-miterlimit:4;stroke-dasharray:none;stroke-opacity:1" />
        </a>
      </g>
    </a>
    <use
       x="0"
       y="0"
       inkscape:tiled-clone-of="#a5475"
       xlink:href="#a5475"
       id="use7060" />
    <use
       x="0"
       y="0"
       inkscape:tiled-clone-of="#a5475"
       xlink:href="#a5475"
       transform="translate(0,-21.938829)"
       id="use7062" />
    <use
       x="0"
       y="0"
       inkscape:tiled-clone-of="#a5475"
       xlink:href="#a5475"
       transform="translate(0,-43.877659)"
       id="use7064" />
    <use
       x="0"
       y="0"
       inkscape:tiled-clone-of="#a5475"
       xlink:href="#a5475"
       transform="translate(0,-65.816488)"
       id="use7066" />
    <use
       x="0"
       y="0"
       inkscape:tiled-clone-of="#a5475"
       xlink:href="#a5475"
       transform="translate(0,-87.755317)"
       id="use7068" />
    <use
       x="0"
       y="0"
       inkscape:tiled-clone-of="#a5475"
       xlink:href="#a5475"
       transform="translate(0,-109.69415)"
       id="use7070" />
    <use
       x="0"
       y="0"
       inkscape:tiled-clone-of="#a5475"
       xlink:href="#a5475"
       transform="translate(0,-131.63298)"
       id="use7072" />
    <use
       x="0"
       y="0"
       inkscape:tiled-clone-of="#a5475"
       xlink:href="#a5475"
       transform="translate(0,-153.57181)"
       id="use7074" />
    <use
       x="0"
       y="0"
       inkscape:tiled-clone-of="#a5475"
       xlink:href="#a5475"
       transform="translate(0,-175.51063)"
       id="use7076" />
    <use
       x="0"
       y="0"
       inkscape:tiled-clone-of="#a5475"
       xlink:href="#a5475"
       transform="translate(0,-197.44946)"
       id="use7078" />
    <use
       x="0"
       y="0"
       inkscape:tiled-clone-of="#a5475"
       xlink:href="#a5475"
       transform="translate(0,-219.38829)"
       id="use7080" />
    <use
       x="0"
       y="0"
       inkscape:tiled-clone-of="#a5475"
       xlink:href="#a5475"
       transform="translate(0,-241.32712)"
       id="use7082" />
    <use
       x="0"
       y="0"
       inkscape:tiled-clone-of="#a5475"
       xlink:href="#a5475"
       transform="translate(25.978825)"
       id="use7084" />
    <use
       x="0"
       y="0"
       inkscape:tiled-clone-of="#a5475"
       xlink:href="#a5475"
       transform="translate(25.978825,-21.938829)"
       id="use7086" />
    <use
       x="0"
       y="0"
       inkscape:tiled-clone-of="#a5475"
       xlink:href="#a5475"
       transform="translate(25.978825,-43.877659)"
       id="use7088" />
    <use
       x="0"
       y="0"
       inkscape:tiled-clone-of="#a5475"
       xlink:href="#a5475"
       transform="translate(25.978825,-65.816488)"
       id="use7090" />
    <use
       x="0"
       y="0"
       inkscape:tiled-clone-of="#a5475"
       xlink:href="#a5475"
       transform="translate(25.978825,-87.755317)"
       id="use7092" />
    <use
       x="0"
       y="0"
       inkscape:tiled-clone-of="#a5475"
       xlink:href="#a5475"
       transform="translate(25.978825,-109.69415)"
       id="use7094" />
    <use
       x="0"
       y="0"
       inkscape:tiled-clone-of="#a5475"
       xlink:href="#a5475"
       transform="translate(25.978825,-131.63298)"
       id="use7096" />
    <use
       x="0"
       y="0"
       inkscape:tiled-clone-of="#a5475"
       xlink:href="#a5475"
       transform="translate(25.978825,-153.57181)"
       id="use7098" />
    <use
       x="0"
       y="0"
       inkscape:tiled-clone-of="#a5475"
       xlink:href="#a5475"
       transform="translate(25.978825,-175.51063)"
       id="use7100" />
    <use
       x="0"
       y="0"
       inkscape:tiled-clone-of="#a5475"
       xlink:href="#a5475"
       transform="translate(25.978825,-197.44946)"
       id="use7102" />
    <use
       x="0"
       y="0"
       inkscape:tiled-clone-of="#a5475"
       xlink:href="#a5475"
       transform="translate(25.978825,-219.38829)"
       id="use7104" />
    <use
       x="0"
       y="0"
       inkscape:tiled-clone-of="#a5475"
       xlink:href="#a5475"
       transform="translate(25.978825,-241.32712)"
       id="use7106" />
    <use
       x="0"
       y="0"
       inkscape:tiled-clone-of="#a5475"
       xlink:href="#a5475"
       transform="translate(51.95765)"
       id="use7108" />
    <use
       x="0"
       y="0"
       inkscape:tiled-clone-of="#a5475"
       xlink:href="#a5475"
       transform="translate(51.95765,-21.938829)"
       id="use7110" />
    <use
       x="0"
       y="0"
       inkscape:tiled-clone-of="#a5475"
       xlink:href="#a5475"
       transform="translate(51.95765,-43.877659)"
       id="use7112" />
    <use
       x="0"
       y="0"
       inkscape:tiled-clone-of="#a5475"
       xlink:href="#a5475"
       transform="translate(51.95765,-65.816488)"
       id="use7114" />
    <use
       x="0"
       y="0"
       inkscape:tiled-clone-of="#a5475"
       xlink:href="#a5475"
       transform="translate(51.95765,-87.755317)"
       id="use7116" />
    <use
       x="0"
       y="0"
       inkscape:tiled-clone-of="#a5475"
       xlink:href="#a5475"
       transform="translate(51.95765,-109.69415)"
       id="use7118" />
    <use
       x="0"
       y="0"
       inkscape:tiled-clone-of="#a5475"
       xlink:href="#a5475"
       transform="translate(51.95765,-131.63298)"
       id="use7120" />
    <use
       x="0"
       y="0"
       inkscape:tiled-clone-of="#a5475"
       xlink:href="#a5475"
       transform="translate(51.95765,-153.57181)"
       id="use7122" />
    <use
       x="0"
       y="0"
       inkscape:tiled-clone-of="#a5475"
       xlink:href="#a5475"
       transform="translate(51.95765,-175.51063)"
       id="use7124" />
    <use
       x="0"
       y="0"
       inkscape:tiled-clone-of="#a5475"
       xlink:href="#a5475"
       transform="translate(51.95765,-197.44946)"
       id="use7126" />
    <use
       x="0"
       y="0"
       inkscape:tiled-clone-of="#a5475"
       xlink:href="#a5475"
       transform="translate(51.95765,-219.38829)"
       id="use7128" />
    <use
       x="0"
       y="0"
       inkscape:tiled-clone-of="#a5475"
       xlink:href="#a5475"
       transform="translate(51.95765,-241.32712)"
       id="use7130" />
    <use
       x="0"
       y="0"
       inkscape:tiled-clone-of="#a5475"
       xlink:href="#a5475"
       transform="translate(77.936475)"
       id="use7132" />
    <use
       x="0"
       y="0"
       inkscape:tiled-clone-of="#a5475"
       xlink:href="#a5475"
       transform="translate(77.936475,-21.938829)"
       id="use7134" />
    <use
       x="0"
       y="0"
       inkscape:tiled-clone-of="#a5475"
       xlink:href="#a5475"
       transform="translate(77.936475,-43.877659)"
       id="use7136" />
    <use
       x="0"
       y="0"
       inkscape:tiled-clone-of="#a5475"
       xlink:href="#a5475"
       transform="translate(77.936475,-65.816488)"
       id="use7138" />
    <use
       x="0"
       y="0"
       inkscape:tiled-clone-of="#a5475"
       xlink:href="#a5475"
       transform="translate(77.936475,-87.755317)"
       id="use7140" />
    <use
       x="0"
       y="0"
       inkscape:tiled-clone-of="#a5475"
       xlink:href="#a5475"
       transform="translate(77.936475,-109.69415)"
       id="use7142" />
    <use
       x="0"
       y="0"
       inkscape:tiled-clone-of="#a5475"
       xlink:href="#a5475"
       transform="translate(77.936475,-131.63298)"
       id="use7144" />
    <use
       x="0"
       y="0"
       inkscape:tiled-clone-of="#a5475"
       xlink:href="#a5475"
       transform="translate(77.936475,-153.57181)"
       id="use7146" />
    <use
       x="0"
       y="0"
       inkscape:tiled-clone-of="#a5475"
       xlink:href="#a5475"
       transform="translate(77.936475,-175.51063)"
       id="use7148" />
    <use
       x="0"
       y="0"
       inkscape:tiled-clone-of="#a5475"
       xlink:href="#a5475"
       transform="translate(77.936475,-197.44946)"
       id="use7150" />
    <use
       x="0"
       y="0"
       inkscape:tiled-clone-of="#a5475"
       xlink:href="#a5475"
       transform="translate(77.936475,-219.38829)"
       id="use7152" />
    <use
       x="0"
       y="0"
       inkscape:tiled-clone-of="#a5475"
       xlink:href="#a5475"
       transform="translate(77.936475,-241.32712)"
       id="use7154" />
    <use
       x="0"
       y="0"
       inkscape:tiled-clone-of="#a5475"
       xlink:href="#a5475"
       transform="translate(103.9153)"
       id="use7156" />
    <use
       x="0"
       y="0"
       inkscape:tiled-clone-of="#a5475"
       xlink:href="#a5475"
       transform="translate(103.9153,-21.938829)"
       id="use7158" />
    <use
       x="0"
       y="0"
       inkscape:tiled-clone-of="#a5475"
       xlink:href="#a5475"
       transform="translate(103.9153,-43.877659)"
       id="use7160" />
    <use
       x="0"
       y="0"
       inkscape:tiled-clone-of="#a5475"
       xlink:href="#a5475"
       transform="translate(103.9153,-65.816488)"
       id="use7162" />
    <use
       x="0"
       y="0"
       inkscape:tiled-clone-of="#a5475"
       xlink:href="#a5475"
       transform="translate(103.9153,-87.755317)"
       id="use7164" />
    <use
       x="0"
       y="0"
       inkscape:tiled-clone-of="#a5475"
       xlink:href="#a5475"
       transform="translate(103.9153,-109.69415)"
       id="use7166" />
    <use
       x="0"
       y="0"
       inkscape:tiled-clone-of="#a5475"
       xlink:href="#a5475"
       transform="translate(103.9153,-131.63298)"
       id="use7168" />
    <use
       x="0"
       y="0"
       inkscape:tiled-clone-of="#a5475"
       xlink:href="#a5475"
       transform="translate(103.9153,-153.57181)"
       id="use7170" />
    <use
       x="0"
       y="0"
       inkscape:tiled-clone-of="#a5475"
       xlink:href="#a5475"
       transform="translate(103.9153,-175.51063)"
       id="use7172" />
    <use
       x="0"
       y="0"
       inkscape:tiled-clone-of="#a5475"
       xlink:href="#a5475"
       transform="translate(103.9153,-197.44946)"
       id="use7174" />
    <use
       x="0"
       y="0"
       inkscape:tiled-clone-of="#a5475"
       xlink:href="#a5475"
       transform="translate(103.9153,-219.38829)"
       id="use7176" />
    <use
       x="0"
       y="0"
       inkscape:tiled-clone-of="#a5475"
       xlink:href="#a5475"
       transform="translate(103.9153,-241.32712)"
       id="use7178" />
    <use
       x="0"
       y="0"
       inkscape:tiled-clone-of="#a5475"
       xlink:href="#a5475"
       transform="translate(129.89412)"
       id="use7180" />
    <use
       x="0"
       y="0"
       inkscape:tiled-clone-of="#a5475"
       xlink:href="#a5475"
       transform="translate(129.89412,-21.938829)"
       id="use7182" />
    <use
       x="0"
       y="0"
       inkscape:tiled-clone-of="#a5475"
       xlink:href="#a5475"
       transform="translate(129.89412,-43.877659)"
       id="use7184" />
    <use
       x="0"
       y="0"
       inkscape:tiled-clone-of="#a5475"
       xlink:href="#a5475"
       transform="translate(129.89412,-65.816488)"
       id="use7186" />
    <use
       x="0"
       y="0"
       inkscape:tiled-clone-of="#a5475"
       xlink:href="#a5475"
       transform="translate(129.89412,-87.755317)"
       id="use7188" />
    <use
       x="0"
       y="0"
       inkscape:tiled-clone-of="#a5475"
       xlink:href="#a5475"
       transform="translate(129.89412,-109.69415)"
       id="use7190" />
    <use
       x="0"
       y="0"
       inkscape:tiled-clone-of="#a5475"
       xlink:href="#a5475"
       transform="translate(129.89412,-131.63298)"
       id="use7192" />
    <use
       x="0"
       y="0"
       inkscape:tiled-clone-of="#a5475"
       xlink:href="#a5475"
       transform="translate(129.89412,-153.57181)"
       id="use7194" />
    <use
       x="0"
       y="0"
       inkscape:tiled-clone-of="#a5475"
       xlink:href="#a5475"
       transform="translate(129.89412,-175.51063)"
       id="use7196" />
    <use
       x="0"
       y="0"
       inkscape:tiled-clone-of="#a5475"
       xlink:href="#a5475"
       transform="translate(129.89412,-197.44946)"
       id="use7198" />
    <use
       x="0"
       y="0"
       inkscape:tiled-clone-of="#a5475"
       xlink:href="#a5475"
       transform="translate(129.89412,-219.38829)"
       id="use7200" />
    <use
       x="0"
       y="0"
       inkscape:tiled-clone-of="#a5475"
       xlink:href="#a5475"
       transform="translate(129.89412,-241.32712)"
       id="use7202" />
    <use
       x="0"
       y="0"
       inkscape:tiled-clone-of="#a5475"
       xlink:href="#a5475"
       transform="translate(155.87295)"
       id="use7204" />
    <use
       x="0"
       y="0"
       inkscape:tiled-clone-of="#a5475"
       xlink:href="#a5475"
       transform="translate(155.87295,-21.938829)"
       id="use7206" />
    <use
       x="0"
       y="0"
       inkscape:tiled-clone-of="#a5475"
       xlink:href="#a5475"
       transform="translate(155.87295,-43.877659)"
       id="use7208" />
    <use
       x="0"
       y="0"
       inkscape:tiled-clone-of="#a5475"
       xlink:href="#a5475"
       transform="translate(155.87295,-65.816488)"
       id="use7210" />
    <use
       x="0"
       y="0"
       inkscape:tiled-clone-of="#a5475"
       xlink:href="#a5475"
       transform="translate(155.87295,-87.755317)"
       id="use7212" />
    <use
       x="0"
       y="0"
       inkscape:tiled-clone-of="#a5475"
       xlink:href="#a5475"
       transform="translate(155.87295,-109.69415)"
       id="use7214" />
    <use
       x="0"
       y="0"
       inkscape:tiled-clone-of="#a5475"
       xlink:href="#a5475"
       transform="translate(155.87295,-131.63298)"
       id="use7216" />
    <use
       x="0"
       y="0"
       inkscape:tiled-clone-of="#a5475"
       xlink:href="#a5475"
       transform="translate(155.87295,-153.57181)"
       id="use7218" />
    <use
       x="0"
       y="0"
       inkscape:tiled-clone-of="#a5475"
       xlink:href="#a5475"
       transform="translate(155.87295,-175.51063)"
       id="use7220" />
    <use
       x="0"
       y="0"
       inkscape:tiled-clone-of="#a5475"
       xlink:href="#a5475"
       transform="translate(155.87295,-197.44946)"
       id="use7222" />
    <use
       x="0"
       y="0"
       inkscape:tiled-clone-of="#a5475"
       xlink:href="#a5475"
       transform="translate(155.87295,-219.38829)"
       id="use7224" />
    <use
       x="0"
       y="0"
       inkscape:tiled-clone-of="#a5475"
       xlink:href="#a5475"
       transform="translate(155.87295,-241.32712)"
       id="use7226" />
  </g>
</svg>
