G04 #@! TF.GenerationSoftware,KiCad,Pcbnew,(5.1.5)-3*
G04 #@! TF.CreationDate,2020-06-17T18:22:29-03:00*
G04 #@! TF.ProjectId,root,726f6f74-2e6b-4696-9361-645f70636258,rev?*
G04 #@! TF.SameCoordinates,Original*
G04 #@! TF.FileFunction,Soldermask,Bot*
G04 #@! TF.FilePolarity,Negative*
%FSLAX46Y46*%
G04 Gerber Fmt 4.6, Leading zero omitted, Abs format (unit mm)*
G04 Created by KiCad (PCBNEW (5.1.5)-3) date 2020-06-17 18:22:29*
%MOMM*%
%LPD*%
G04 APERTURE LIST*
%ADD10C,1.727200*%
%ADD11C,0.100000*%
%ADD12O,1.700000X1.700000*%
%ADD13R,1.700000X1.700000*%
%ADD14R,2.300000X1.600000*%
%ADD15O,2.300000X1.600000*%
%ADD16C,4.400000*%
%ADD17R,1.800000X4.400000*%
%ADD18O,1.800000X4.000000*%
%ADD19O,4.000000X1.800000*%
%ADD20C,4.000000*%
%ADD21C,3.000000*%
%ADD22R,3.000000X3.000000*%
%ADD23O,1.600000X1.600000*%
%ADD24R,1.600000X1.600000*%
%ADD25C,1.000000*%
%ADD26C,1.500000*%
%ADD27O,3.000000X5.000000*%
%ADD28C,1.665000*%
%ADD29O,2.200000X1.740000*%
%ADD30O,1.740000X2.200000*%
%ADD31C,6.000000*%
%ADD32R,6.500000X6.000000*%
%ADD33C,2.000000*%
%ADD34O,2.200000X2.200000*%
%ADD35R,2.200000X2.200000*%
G04 APERTURE END LIST*
D10*
X181988154Y-123619744D02*
X181988154Y-123619744D01*
X183784205Y-125415795D02*
X183784205Y-125415795D01*
X180192102Y-125415795D02*
X180192102Y-125415795D01*
X181988154Y-127211846D02*
X181988154Y-127211846D01*
X178396051Y-127211846D02*
X178396051Y-127211846D01*
X180192102Y-129007898D02*
X180192102Y-129007898D01*
X176600000Y-129007898D02*
X176600000Y-129007898D01*
X178396051Y-130803949D02*
X178396051Y-130803949D01*
X174803949Y-130803949D02*
X174803949Y-130803949D01*
D11*
G36*
X177821315Y-132600000D02*
G01*
X176600000Y-133821315D01*
X175378685Y-132600000D01*
X176600000Y-131378685D01*
X177821315Y-132600000D01*
G37*
D12*
X140500000Y-146200000D03*
X143040000Y-146200000D03*
X145580000Y-146200000D03*
X148120000Y-146200000D03*
X150660000Y-146200000D03*
D13*
X153200000Y-146200000D03*
D12*
X140500000Y-140060000D03*
X140500000Y-142600000D03*
X143040000Y-140060000D03*
X143040000Y-142600000D03*
X145580000Y-140060000D03*
X145580000Y-142600000D03*
X148120000Y-140060000D03*
X148120000Y-142600000D03*
X150660000Y-140060000D03*
X150660000Y-142600000D03*
X153200000Y-140060000D03*
D13*
X153200000Y-142600000D03*
D14*
X165500000Y-69030000D03*
D15*
X165500000Y-71570000D03*
X165500000Y-74110000D03*
D16*
X165500000Y-82400000D03*
D15*
X165500000Y-76650000D03*
D16*
X165500000Y-61800000D03*
D12*
X105600000Y-142320000D03*
X105600000Y-144860000D03*
D13*
X105600000Y-147400000D03*
D17*
X104130000Y-90010000D03*
D18*
X98330000Y-90010000D03*
D19*
X101130000Y-94810000D03*
D20*
X131300000Y-132300000D03*
X131300000Y-116100000D03*
D12*
X120300000Y-125460000D03*
X120300000Y-133080000D03*
X120300000Y-130540000D03*
X120300000Y-122920000D03*
D13*
X120300000Y-115300000D03*
D12*
X120300000Y-120380000D03*
X120300000Y-117840000D03*
X120300000Y-128000000D03*
D21*
X205550000Y-65260000D03*
D22*
X205550000Y-60180000D03*
D23*
X131450000Y-147170000D03*
X128910000Y-139550000D03*
X128910000Y-147170000D03*
D24*
X131450000Y-139550000D03*
D25*
X203600000Y-121700000D03*
X203600000Y-126100000D03*
D26*
X148249319Y-110050681D03*
X151700000Y-106600000D03*
D27*
X143600000Y-53600000D03*
X121300000Y-53600000D03*
X121300000Y-100200000D03*
X143600000Y-100200000D03*
X171400000Y-53700000D03*
X149100000Y-53700000D03*
X149100000Y-100300000D03*
X171400000Y-100300000D03*
X199200000Y-53600000D03*
X176900000Y-53600000D03*
X176900000Y-100200000D03*
X199200000Y-100200000D03*
X115800000Y-53600000D03*
X93500000Y-53600000D03*
X93500000Y-100200000D03*
X115800000Y-100200000D03*
D28*
X123060000Y-71700000D03*
X123060000Y-74240000D03*
X123060000Y-76780000D03*
X123060000Y-79320000D03*
X123060000Y-81860000D03*
X123060000Y-84400000D03*
X123060000Y-86940000D03*
X123060000Y-89480000D03*
X138300000Y-71700000D03*
X138300000Y-74240000D03*
X138300000Y-76780000D03*
X138300000Y-79320000D03*
X138300000Y-81860000D03*
X138300000Y-84400000D03*
X138300000Y-86940000D03*
X138300000Y-89480000D03*
D29*
X205600000Y-102820000D03*
X205600000Y-100280000D03*
X205600000Y-97740000D03*
D11*
G36*
X206474505Y-94331204D02*
G01*
X206498773Y-94334804D01*
X206522572Y-94340765D01*
X206545671Y-94349030D01*
X206567850Y-94359520D01*
X206588893Y-94372132D01*
X206608599Y-94386747D01*
X206626777Y-94403223D01*
X206643253Y-94421401D01*
X206657868Y-94441107D01*
X206670480Y-94462150D01*
X206680970Y-94484329D01*
X206689235Y-94507428D01*
X206695196Y-94531227D01*
X206698796Y-94555495D01*
X206700000Y-94579999D01*
X206700000Y-95820001D01*
X206698796Y-95844505D01*
X206695196Y-95868773D01*
X206689235Y-95892572D01*
X206680970Y-95915671D01*
X206670480Y-95937850D01*
X206657868Y-95958893D01*
X206643253Y-95978599D01*
X206626777Y-95996777D01*
X206608599Y-96013253D01*
X206588893Y-96027868D01*
X206567850Y-96040480D01*
X206545671Y-96050970D01*
X206522572Y-96059235D01*
X206498773Y-96065196D01*
X206474505Y-96068796D01*
X206450001Y-96070000D01*
X204749999Y-96070000D01*
X204725495Y-96068796D01*
X204701227Y-96065196D01*
X204677428Y-96059235D01*
X204654329Y-96050970D01*
X204632150Y-96040480D01*
X204611107Y-96027868D01*
X204591401Y-96013253D01*
X204573223Y-95996777D01*
X204556747Y-95978599D01*
X204542132Y-95958893D01*
X204529520Y-95937850D01*
X204519030Y-95915671D01*
X204510765Y-95892572D01*
X204504804Y-95868773D01*
X204501204Y-95844505D01*
X204500000Y-95820001D01*
X204500000Y-94579999D01*
X204501204Y-94555495D01*
X204504804Y-94531227D01*
X204510765Y-94507428D01*
X204519030Y-94484329D01*
X204529520Y-94462150D01*
X204542132Y-94441107D01*
X204556747Y-94421401D01*
X204573223Y-94403223D01*
X204591401Y-94386747D01*
X204611107Y-94372132D01*
X204632150Y-94359520D01*
X204654329Y-94349030D01*
X204677428Y-94340765D01*
X204701227Y-94334804D01*
X204725495Y-94331204D01*
X204749999Y-94330000D01*
X206450001Y-94330000D01*
X206474505Y-94331204D01*
G37*
D30*
X179300000Y-144600000D03*
X181840000Y-144600000D03*
X184380000Y-144600000D03*
X186920000Y-144600000D03*
X189460000Y-144600000D03*
D11*
G36*
X192644505Y-143501204D02*
G01*
X192668773Y-143504804D01*
X192692572Y-143510765D01*
X192715671Y-143519030D01*
X192737850Y-143529520D01*
X192758893Y-143542132D01*
X192778599Y-143556747D01*
X192796777Y-143573223D01*
X192813253Y-143591401D01*
X192827868Y-143611107D01*
X192840480Y-143632150D01*
X192850970Y-143654329D01*
X192859235Y-143677428D01*
X192865196Y-143701227D01*
X192868796Y-143725495D01*
X192870000Y-143749999D01*
X192870000Y-145450001D01*
X192868796Y-145474505D01*
X192865196Y-145498773D01*
X192859235Y-145522572D01*
X192850970Y-145545671D01*
X192840480Y-145567850D01*
X192827868Y-145588893D01*
X192813253Y-145608599D01*
X192796777Y-145626777D01*
X192778599Y-145643253D01*
X192758893Y-145657868D01*
X192737850Y-145670480D01*
X192715671Y-145680970D01*
X192692572Y-145689235D01*
X192668773Y-145695196D01*
X192644505Y-145698796D01*
X192620001Y-145700000D01*
X191379999Y-145700000D01*
X191355495Y-145698796D01*
X191331227Y-145695196D01*
X191307428Y-145689235D01*
X191284329Y-145680970D01*
X191262150Y-145670480D01*
X191241107Y-145657868D01*
X191221401Y-145643253D01*
X191203223Y-145626777D01*
X191186747Y-145608599D01*
X191172132Y-145588893D01*
X191159520Y-145567850D01*
X191149030Y-145545671D01*
X191140765Y-145522572D01*
X191134804Y-145498773D01*
X191131204Y-145474505D01*
X191130000Y-145450001D01*
X191130000Y-143749999D01*
X191131204Y-143725495D01*
X191134804Y-143701227D01*
X191140765Y-143677428D01*
X191149030Y-143654329D01*
X191159520Y-143632150D01*
X191172132Y-143611107D01*
X191186747Y-143591401D01*
X191203223Y-143573223D01*
X191221401Y-143556747D01*
X191241107Y-143542132D01*
X191262150Y-143529520D01*
X191284329Y-143519030D01*
X191307428Y-143510765D01*
X191331227Y-143504804D01*
X191355495Y-143501204D01*
X191379999Y-143500000D01*
X192620001Y-143500000D01*
X192644505Y-143501204D01*
G37*
D29*
X205600000Y-78420000D03*
X205600000Y-75880000D03*
X205600000Y-73340000D03*
D11*
G36*
X206474505Y-69931204D02*
G01*
X206498773Y-69934804D01*
X206522572Y-69940765D01*
X206545671Y-69949030D01*
X206567850Y-69959520D01*
X206588893Y-69972132D01*
X206608599Y-69986747D01*
X206626777Y-70003223D01*
X206643253Y-70021401D01*
X206657868Y-70041107D01*
X206670480Y-70062150D01*
X206680970Y-70084329D01*
X206689235Y-70107428D01*
X206695196Y-70131227D01*
X206698796Y-70155495D01*
X206700000Y-70179999D01*
X206700000Y-71420001D01*
X206698796Y-71444505D01*
X206695196Y-71468773D01*
X206689235Y-71492572D01*
X206680970Y-71515671D01*
X206670480Y-71537850D01*
X206657868Y-71558893D01*
X206643253Y-71578599D01*
X206626777Y-71596777D01*
X206608599Y-71613253D01*
X206588893Y-71627868D01*
X206567850Y-71640480D01*
X206545671Y-71650970D01*
X206522572Y-71659235D01*
X206498773Y-71665196D01*
X206474505Y-71668796D01*
X206450001Y-71670000D01*
X204749999Y-71670000D01*
X204725495Y-71668796D01*
X204701227Y-71665196D01*
X204677428Y-71659235D01*
X204654329Y-71650970D01*
X204632150Y-71640480D01*
X204611107Y-71627868D01*
X204591401Y-71613253D01*
X204573223Y-71596777D01*
X204556747Y-71578599D01*
X204542132Y-71558893D01*
X204529520Y-71537850D01*
X204519030Y-71515671D01*
X204510765Y-71492572D01*
X204504804Y-71468773D01*
X204501204Y-71444505D01*
X204500000Y-71420001D01*
X204500000Y-70179999D01*
X204501204Y-70155495D01*
X204504804Y-70131227D01*
X204510765Y-70107428D01*
X204519030Y-70084329D01*
X204529520Y-70062150D01*
X204542132Y-70041107D01*
X204556747Y-70021401D01*
X204573223Y-70003223D01*
X204591401Y-69986747D01*
X204611107Y-69972132D01*
X204632150Y-69959520D01*
X204654329Y-69949030D01*
X204677428Y-69940765D01*
X204701227Y-69934804D01*
X204725495Y-69931204D01*
X204749999Y-69930000D01*
X206450001Y-69930000D01*
X206474505Y-69931204D01*
G37*
D29*
X205600000Y-115020000D03*
X205600000Y-112480000D03*
X205600000Y-109940000D03*
D11*
G36*
X206474505Y-106531204D02*
G01*
X206498773Y-106534804D01*
X206522572Y-106540765D01*
X206545671Y-106549030D01*
X206567850Y-106559520D01*
X206588893Y-106572132D01*
X206608599Y-106586747D01*
X206626777Y-106603223D01*
X206643253Y-106621401D01*
X206657868Y-106641107D01*
X206670480Y-106662150D01*
X206680970Y-106684329D01*
X206689235Y-106707428D01*
X206695196Y-106731227D01*
X206698796Y-106755495D01*
X206700000Y-106779999D01*
X206700000Y-108020001D01*
X206698796Y-108044505D01*
X206695196Y-108068773D01*
X206689235Y-108092572D01*
X206680970Y-108115671D01*
X206670480Y-108137850D01*
X206657868Y-108158893D01*
X206643253Y-108178599D01*
X206626777Y-108196777D01*
X206608599Y-108213253D01*
X206588893Y-108227868D01*
X206567850Y-108240480D01*
X206545671Y-108250970D01*
X206522572Y-108259235D01*
X206498773Y-108265196D01*
X206474505Y-108268796D01*
X206450001Y-108270000D01*
X204749999Y-108270000D01*
X204725495Y-108268796D01*
X204701227Y-108265196D01*
X204677428Y-108259235D01*
X204654329Y-108250970D01*
X204632150Y-108240480D01*
X204611107Y-108227868D01*
X204591401Y-108213253D01*
X204573223Y-108196777D01*
X204556747Y-108178599D01*
X204542132Y-108158893D01*
X204529520Y-108137850D01*
X204519030Y-108115671D01*
X204510765Y-108092572D01*
X204504804Y-108068773D01*
X204501204Y-108044505D01*
X204500000Y-108020001D01*
X204500000Y-106779999D01*
X204501204Y-106755495D01*
X204504804Y-106731227D01*
X204510765Y-106707428D01*
X204519030Y-106684329D01*
X204529520Y-106662150D01*
X204542132Y-106641107D01*
X204556747Y-106621401D01*
X204573223Y-106603223D01*
X204591401Y-106586747D01*
X204611107Y-106572132D01*
X204632150Y-106559520D01*
X204654329Y-106549030D01*
X204677428Y-106540765D01*
X204701227Y-106534804D01*
X204725495Y-106531204D01*
X204749999Y-106530000D01*
X206450001Y-106530000D01*
X206474505Y-106531204D01*
G37*
D29*
X205600000Y-90620000D03*
X205600000Y-88080000D03*
X205600000Y-85540000D03*
D11*
G36*
X206474505Y-82131204D02*
G01*
X206498773Y-82134804D01*
X206522572Y-82140765D01*
X206545671Y-82149030D01*
X206567850Y-82159520D01*
X206588893Y-82172132D01*
X206608599Y-82186747D01*
X206626777Y-82203223D01*
X206643253Y-82221401D01*
X206657868Y-82241107D01*
X206670480Y-82262150D01*
X206680970Y-82284329D01*
X206689235Y-82307428D01*
X206695196Y-82331227D01*
X206698796Y-82355495D01*
X206700000Y-82379999D01*
X206700000Y-83620001D01*
X206698796Y-83644505D01*
X206695196Y-83668773D01*
X206689235Y-83692572D01*
X206680970Y-83715671D01*
X206670480Y-83737850D01*
X206657868Y-83758893D01*
X206643253Y-83778599D01*
X206626777Y-83796777D01*
X206608599Y-83813253D01*
X206588893Y-83827868D01*
X206567850Y-83840480D01*
X206545671Y-83850970D01*
X206522572Y-83859235D01*
X206498773Y-83865196D01*
X206474505Y-83868796D01*
X206450001Y-83870000D01*
X204749999Y-83870000D01*
X204725495Y-83868796D01*
X204701227Y-83865196D01*
X204677428Y-83859235D01*
X204654329Y-83850970D01*
X204632150Y-83840480D01*
X204611107Y-83827868D01*
X204591401Y-83813253D01*
X204573223Y-83796777D01*
X204556747Y-83778599D01*
X204542132Y-83758893D01*
X204529520Y-83737850D01*
X204519030Y-83715671D01*
X204510765Y-83692572D01*
X204504804Y-83668773D01*
X204501204Y-83644505D01*
X204500000Y-83620001D01*
X204500000Y-82379999D01*
X204501204Y-82355495D01*
X204504804Y-82331227D01*
X204510765Y-82307428D01*
X204519030Y-82284329D01*
X204529520Y-82262150D01*
X204542132Y-82241107D01*
X204556747Y-82221401D01*
X204573223Y-82203223D01*
X204591401Y-82186747D01*
X204611107Y-82172132D01*
X204632150Y-82159520D01*
X204654329Y-82149030D01*
X204677428Y-82140765D01*
X204701227Y-82134804D01*
X204725495Y-82131204D01*
X204749999Y-82130000D01*
X206450001Y-82130000D01*
X206474505Y-82131204D01*
G37*
D12*
X163250000Y-141070000D03*
X163250000Y-143610000D03*
D13*
X163250000Y-146150000D03*
D12*
X167050000Y-141070000D03*
X167050000Y-143610000D03*
D13*
X167050000Y-146150000D03*
X170850000Y-146150000D03*
D12*
X170850000Y-143610000D03*
X170850000Y-141070000D03*
X174650000Y-141070000D03*
X174650000Y-143610000D03*
D13*
X174650000Y-146150000D03*
D30*
X100880000Y-54800000D03*
X103420000Y-54800000D03*
X105960000Y-54800000D03*
D11*
G36*
X109144505Y-53701204D02*
G01*
X109168773Y-53704804D01*
X109192572Y-53710765D01*
X109215671Y-53719030D01*
X109237850Y-53729520D01*
X109258893Y-53742132D01*
X109278599Y-53756747D01*
X109296777Y-53773223D01*
X109313253Y-53791401D01*
X109327868Y-53811107D01*
X109340480Y-53832150D01*
X109350970Y-53854329D01*
X109359235Y-53877428D01*
X109365196Y-53901227D01*
X109368796Y-53925495D01*
X109370000Y-53949999D01*
X109370000Y-55650001D01*
X109368796Y-55674505D01*
X109365196Y-55698773D01*
X109359235Y-55722572D01*
X109350970Y-55745671D01*
X109340480Y-55767850D01*
X109327868Y-55788893D01*
X109313253Y-55808599D01*
X109296777Y-55826777D01*
X109278599Y-55843253D01*
X109258893Y-55857868D01*
X109237850Y-55870480D01*
X109215671Y-55880970D01*
X109192572Y-55889235D01*
X109168773Y-55895196D01*
X109144505Y-55898796D01*
X109120001Y-55900000D01*
X107879999Y-55900000D01*
X107855495Y-55898796D01*
X107831227Y-55895196D01*
X107807428Y-55889235D01*
X107784329Y-55880970D01*
X107762150Y-55870480D01*
X107741107Y-55857868D01*
X107721401Y-55843253D01*
X107703223Y-55826777D01*
X107686747Y-55808599D01*
X107672132Y-55788893D01*
X107659520Y-55767850D01*
X107649030Y-55745671D01*
X107640765Y-55722572D01*
X107634804Y-55698773D01*
X107631204Y-55674505D01*
X107630000Y-55650001D01*
X107630000Y-53949999D01*
X107631204Y-53925495D01*
X107634804Y-53901227D01*
X107640765Y-53877428D01*
X107649030Y-53854329D01*
X107659520Y-53832150D01*
X107672132Y-53811107D01*
X107686747Y-53791401D01*
X107703223Y-53773223D01*
X107721401Y-53756747D01*
X107741107Y-53742132D01*
X107762150Y-53729520D01*
X107784329Y-53719030D01*
X107807428Y-53710765D01*
X107831227Y-53704804D01*
X107855495Y-53701204D01*
X107879999Y-53700000D01*
X109120001Y-53700000D01*
X109144505Y-53701204D01*
G37*
D30*
X156280000Y-55000000D03*
X158820000Y-55000000D03*
X161360000Y-55000000D03*
D11*
G36*
X164544505Y-53901204D02*
G01*
X164568773Y-53904804D01*
X164592572Y-53910765D01*
X164615671Y-53919030D01*
X164637850Y-53929520D01*
X164658893Y-53942132D01*
X164678599Y-53956747D01*
X164696777Y-53973223D01*
X164713253Y-53991401D01*
X164727868Y-54011107D01*
X164740480Y-54032150D01*
X164750970Y-54054329D01*
X164759235Y-54077428D01*
X164765196Y-54101227D01*
X164768796Y-54125495D01*
X164770000Y-54149999D01*
X164770000Y-55850001D01*
X164768796Y-55874505D01*
X164765196Y-55898773D01*
X164759235Y-55922572D01*
X164750970Y-55945671D01*
X164740480Y-55967850D01*
X164727868Y-55988893D01*
X164713253Y-56008599D01*
X164696777Y-56026777D01*
X164678599Y-56043253D01*
X164658893Y-56057868D01*
X164637850Y-56070480D01*
X164615671Y-56080970D01*
X164592572Y-56089235D01*
X164568773Y-56095196D01*
X164544505Y-56098796D01*
X164520001Y-56100000D01*
X163279999Y-56100000D01*
X163255495Y-56098796D01*
X163231227Y-56095196D01*
X163207428Y-56089235D01*
X163184329Y-56080970D01*
X163162150Y-56070480D01*
X163141107Y-56057868D01*
X163121401Y-56043253D01*
X163103223Y-56026777D01*
X163086747Y-56008599D01*
X163072132Y-55988893D01*
X163059520Y-55967850D01*
X163049030Y-55945671D01*
X163040765Y-55922572D01*
X163034804Y-55898773D01*
X163031204Y-55874505D01*
X163030000Y-55850001D01*
X163030000Y-54149999D01*
X163031204Y-54125495D01*
X163034804Y-54101227D01*
X163040765Y-54077428D01*
X163049030Y-54054329D01*
X163059520Y-54032150D01*
X163072132Y-54011107D01*
X163086747Y-53991401D01*
X163103223Y-53973223D01*
X163121401Y-53956747D01*
X163141107Y-53942132D01*
X163162150Y-53929520D01*
X163184329Y-53919030D01*
X163207428Y-53910765D01*
X163231227Y-53904804D01*
X163255495Y-53901204D01*
X163279999Y-53900000D01*
X164520001Y-53900000D01*
X164544505Y-53901204D01*
G37*
D31*
X95700000Y-71800000D03*
D32*
X95700000Y-79000000D03*
D30*
X128880000Y-54800000D03*
X131420000Y-54800000D03*
X133960000Y-54800000D03*
D11*
G36*
X137144505Y-53701204D02*
G01*
X137168773Y-53704804D01*
X137192572Y-53710765D01*
X137215671Y-53719030D01*
X137237850Y-53729520D01*
X137258893Y-53742132D01*
X137278599Y-53756747D01*
X137296777Y-53773223D01*
X137313253Y-53791401D01*
X137327868Y-53811107D01*
X137340480Y-53832150D01*
X137350970Y-53854329D01*
X137359235Y-53877428D01*
X137365196Y-53901227D01*
X137368796Y-53925495D01*
X137370000Y-53949999D01*
X137370000Y-55650001D01*
X137368796Y-55674505D01*
X137365196Y-55698773D01*
X137359235Y-55722572D01*
X137350970Y-55745671D01*
X137340480Y-55767850D01*
X137327868Y-55788893D01*
X137313253Y-55808599D01*
X137296777Y-55826777D01*
X137278599Y-55843253D01*
X137258893Y-55857868D01*
X137237850Y-55870480D01*
X137215671Y-55880970D01*
X137192572Y-55889235D01*
X137168773Y-55895196D01*
X137144505Y-55898796D01*
X137120001Y-55900000D01*
X135879999Y-55900000D01*
X135855495Y-55898796D01*
X135831227Y-55895196D01*
X135807428Y-55889235D01*
X135784329Y-55880970D01*
X135762150Y-55870480D01*
X135741107Y-55857868D01*
X135721401Y-55843253D01*
X135703223Y-55826777D01*
X135686747Y-55808599D01*
X135672132Y-55788893D01*
X135659520Y-55767850D01*
X135649030Y-55745671D01*
X135640765Y-55722572D01*
X135634804Y-55698773D01*
X135631204Y-55674505D01*
X135630000Y-55650001D01*
X135630000Y-53949999D01*
X135631204Y-53925495D01*
X135634804Y-53901227D01*
X135640765Y-53877428D01*
X135649030Y-53854329D01*
X135659520Y-53832150D01*
X135672132Y-53811107D01*
X135686747Y-53791401D01*
X135703223Y-53773223D01*
X135721401Y-53756747D01*
X135741107Y-53742132D01*
X135762150Y-53729520D01*
X135784329Y-53719030D01*
X135807428Y-53710765D01*
X135831227Y-53704804D01*
X135855495Y-53701204D01*
X135879999Y-53700000D01*
X137120001Y-53700000D01*
X137144505Y-53701204D01*
G37*
D30*
X183880000Y-54900000D03*
X186420000Y-54900000D03*
X188960000Y-54900000D03*
D11*
G36*
X192144505Y-53801204D02*
G01*
X192168773Y-53804804D01*
X192192572Y-53810765D01*
X192215671Y-53819030D01*
X192237850Y-53829520D01*
X192258893Y-53842132D01*
X192278599Y-53856747D01*
X192296777Y-53873223D01*
X192313253Y-53891401D01*
X192327868Y-53911107D01*
X192340480Y-53932150D01*
X192350970Y-53954329D01*
X192359235Y-53977428D01*
X192365196Y-54001227D01*
X192368796Y-54025495D01*
X192370000Y-54049999D01*
X192370000Y-55750001D01*
X192368796Y-55774505D01*
X192365196Y-55798773D01*
X192359235Y-55822572D01*
X192350970Y-55845671D01*
X192340480Y-55867850D01*
X192327868Y-55888893D01*
X192313253Y-55908599D01*
X192296777Y-55926777D01*
X192278599Y-55943253D01*
X192258893Y-55957868D01*
X192237850Y-55970480D01*
X192215671Y-55980970D01*
X192192572Y-55989235D01*
X192168773Y-55995196D01*
X192144505Y-55998796D01*
X192120001Y-56000000D01*
X190879999Y-56000000D01*
X190855495Y-55998796D01*
X190831227Y-55995196D01*
X190807428Y-55989235D01*
X190784329Y-55980970D01*
X190762150Y-55970480D01*
X190741107Y-55957868D01*
X190721401Y-55943253D01*
X190703223Y-55926777D01*
X190686747Y-55908599D01*
X190672132Y-55888893D01*
X190659520Y-55867850D01*
X190649030Y-55845671D01*
X190640765Y-55822572D01*
X190634804Y-55798773D01*
X190631204Y-55774505D01*
X190630000Y-55750001D01*
X190630000Y-54049999D01*
X190631204Y-54025495D01*
X190634804Y-54001227D01*
X190640765Y-53977428D01*
X190649030Y-53954329D01*
X190659520Y-53932150D01*
X190672132Y-53911107D01*
X190686747Y-53891401D01*
X190703223Y-53873223D01*
X190721401Y-53856747D01*
X190741107Y-53842132D01*
X190762150Y-53829520D01*
X190784329Y-53819030D01*
X190807428Y-53810765D01*
X190831227Y-53804804D01*
X190855495Y-53801204D01*
X190879999Y-53800000D01*
X192120001Y-53800000D01*
X192144505Y-53801204D01*
G37*
D12*
X152600000Y-64000000D03*
X152600000Y-66540000D03*
X152600000Y-69080000D03*
X152600000Y-71620000D03*
X152600000Y-74160000D03*
D13*
X152600000Y-76700000D03*
D12*
X145800000Y-64040000D03*
X145800000Y-66580000D03*
X145800000Y-69120000D03*
X145800000Y-71660000D03*
X145800000Y-74200000D03*
D13*
X145800000Y-76740000D03*
D33*
X108000000Y-90000000D03*
X108000000Y-95000000D03*
D34*
X131000000Y-73040000D03*
D35*
X131000000Y-83200000D03*
D34*
X125940000Y-67300000D03*
D35*
X136100000Y-67300000D03*
D34*
X125940000Y-63700000D03*
D35*
X136100000Y-63700000D03*
M02*
