M48
; DRILL file {KiCad (5.1.5)-3} date 6/17/2020 6:24:02 PM
; FORMAT={-:-/ absolute / inch / decimal}
; #@! TF.CreationDate,2020-06-17T18:24:02-03:00
; #@! TF.GenerationSoftware,Kicad,Pcbnew,(5.1.5)-3
; #@! TF.FileFunction,Plated,1,2,PTH
FMAT,2
INCH
T1C0.0118
T2C0.0157
T3C0.0300
T4C0.0315
T5C0.0394
T6C0.0400
T7C0.0433
T8C0.0437
T9C0.0472
T10C0.0598
T11C0.1260
T12C0.1378
T13C0.1772
%
G90
G05
T1
X3.9567Y-4.5591
X4.0079Y-4.8425
X4.0118Y-4.9016
X4.0906Y-4.5906
X4.1693Y-4.5906
X4.2283Y-3.1181
X4.2795Y-2.9331
X4.3268Y-4.5039
X4.3937Y-5.2992
X4.3937Y-5.4606
X4.437Y-5.4584
X4.4646Y-5.4173
X4.622Y-4.4331
X4.6693Y-5.7402
X5.0236Y-5.0472
X5.2992Y-3.7559
X5.3268Y-5.252
X5.3307Y-5.1142
X5.3937Y-5.252
X5.3937Y-5.4961
X5.4449Y-5.2283
X5.4685Y-4.9843
X5.4921Y-5.2244
X5.6654Y-4.748
X5.6811Y-5.2126
X5.685Y-4.7126
X5.7047Y-4.748
X5.7205Y-4.9843
X5.7638Y-4.0906
X5.7835Y-5.2126
X5.8622Y-4.7677
X5.8701Y-4.6732
X5.8819Y-4.6063
X5.8819Y-5.2112
X5.9213Y-4.5748
X5.9291Y-4.9488
X5.9803Y-5.1535
X5.9857Y-4.9188
X6.0236Y-4.5197
X6.0276Y-4.4764
X6.0945Y-4.3976
X6.0984Y-5.3189
X6.1192Y-4.685
X6.2165Y-4.3386
X6.2322Y-4.5119
X6.2559Y-4.6535
X6.2756Y-4.752
X6.3228Y-4.4764
X6.3622Y-4.7047
X6.378Y-4.437
X6.3937Y-4.6758
X6.4016Y-4.4685
X6.4528Y-4.2953
X6.4801Y-4.9329
X6.4843Y-4.8898
X6.4961Y-4.1772
X6.5551Y-4.2441
X6.5591Y-3.9528
X6.5984Y-4.7441
X6.5995Y-4.7981
X6.626Y-3.9921
X6.6535Y-4.7126
X6.6929Y-5.0984
X6.7234Y-5.1444
X6.7555Y-5.1212
X6.7876Y-5.0984
X6.8189Y-4.7323
X6.8189Y-4.8425
X6.8307Y-4.9173
X6.8386Y-2.6575
X6.8386Y-2.8307
X6.8465Y-5.0433
X7.0906Y-2.626
X7.1732Y-3.5039
X7.2244Y-2.8425
X7.2323Y-3.5039
X7.2953Y-3.5039
X7.3543Y-3.5039
X7.4055Y-3.5039
X7.4606Y-3.5039
X7.4685Y-2.4449
X7.4764Y-4.2638
X7.6024Y-4.3661
X7.8337Y-4.2667
X7.8425Y-2.7795
X7.9449Y-5.2677
X8.0591Y-5.3228
T2
X3.8583Y-4.0079
X4.0118Y-2.6417
X4.0945Y-3.3228
X4.1102Y-4.0787
X4.374Y-4.2205
X4.5591Y-2.4921
X5.5354Y-2.374
X5.8268Y-4.185
X7.5709Y-5.378
X7.6299Y-5.4331
X7.7244Y-4.8937
X7.7953Y-5.0197
T3
X3.6811Y-2.1102
X3.6811Y-3.9449
X4.5591Y-2.1102
X4.5591Y-3.9449
X5.8701Y-2.1142
X5.8701Y-3.9488
X6.748Y-2.1142
X6.748Y-3.9488
X6.9646Y-2.1102
X6.9646Y-3.9449
X7.8425Y-2.1102
X7.8425Y-3.9449
X4.7756Y-2.1102
X4.7756Y-3.9449
X5.6535Y-2.1102
X5.6535Y-3.9449
T4
X5.8366Y-4.3327
X5.9724Y-4.1969
X6.5157Y-2.7177
X6.5157Y-2.8177
X6.5157Y-2.9177
X6.5157Y-3.0177
X5.0752Y-5.4941
X5.0752Y-5.7941
X5.1752Y-5.4941
X5.1752Y-5.7941
T5
X6.5768Y-5.5539
X6.5768Y-5.6539
X6.5768Y-5.7539
X4.7362Y-4.5394
X4.7362Y-4.6394
X4.7362Y-4.7394
X4.7362Y-4.8394
X4.7362Y-4.9394
X4.7362Y-5.0394
X4.7362Y-5.1394
X4.7362Y-5.2394
X4.1575Y-5.6031
X4.1575Y-5.7031
X4.1575Y-5.8031
X5.7402Y-2.5213
X5.7402Y-2.6213
X5.7402Y-2.7213
X5.7402Y-2.8213
X5.7402Y-2.9213
X5.7402Y-3.0213
X4.252Y-3.5433
X4.252Y-3.7402
X6.0079Y-2.5197
X6.0079Y-2.6197
X6.0079Y-2.7197
X6.0079Y-2.8197
X6.0079Y-2.9197
X6.0079Y-3.0197
X5.5315Y-5.7559
X5.6315Y-5.7559
X5.7315Y-5.7559
X5.8315Y-5.7559
X5.9315Y-5.7559
X6.0315Y-5.7559
X6.4272Y-5.5539
X6.4272Y-5.6539
X6.4272Y-5.7539
X6.876Y-5.5539
X6.876Y-5.6539
X6.876Y-5.7539
X5.5315Y-5.5142
X5.5315Y-5.6142
X5.6315Y-5.5142
X5.6315Y-5.6142
X5.7315Y-5.5142
X5.7315Y-5.6142
X5.8315Y-5.5142
X5.8315Y-5.6142
X5.9315Y-5.5142
X5.9315Y-5.6142
X6.0315Y-5.5142
X6.0315Y-5.6142
X6.7264Y-5.5539
X6.7264Y-5.6539
X6.7264Y-5.7539
T6
X6.882Y-5.1498
X6.9528Y-5.0791
X6.9528Y-5.2205
X7.0235Y-5.0083
X7.0235Y-5.1498
X7.0942Y-4.9376
X7.0942Y-5.0791
X7.1649Y-4.8669
X7.1649Y-5.0083
X7.2356Y-4.9376
T7
X4.9583Y-2.5079
X5.3583Y-2.5079
X5.1575Y-2.8756
X5.1575Y-3.2756
X4.9583Y-2.6496
X5.3583Y-2.6496
T8
X4.8449Y-2.8228
X4.8449Y-2.9228
X4.8449Y-3.0228
X4.8449Y-3.1228
X4.8449Y-3.2228
X4.8449Y-3.3228
X4.8449Y-3.4228
X4.8449Y-3.5228
X5.4449Y-2.8228
X5.4449Y-2.9228
X5.4449Y-3.0228
X5.4449Y-3.1228
X5.4449Y-3.2228
X5.4449Y-3.3228
X5.4449Y-3.4228
X5.4449Y-3.5228
T9
X7.2394Y-2.1614
X7.3394Y-2.1614
X7.4394Y-2.1614
X7.5394Y-2.1614
X7.0591Y-5.6929
X7.1591Y-5.6929
X7.2591Y-5.6929
X7.3591Y-5.6929
X7.4591Y-5.6929
X7.5591Y-5.6929
X8.0945Y-4.2283
X8.0945Y-4.3283
X8.0945Y-4.4283
X8.0945Y-4.5283
X8.0945Y-3.2677
X8.0945Y-3.3677
X8.0945Y-3.4677
X8.0945Y-3.5677
X6.1528Y-2.1654
X6.2528Y-2.1654
X6.3528Y-2.1654
X6.4528Y-2.1654
X3.9717Y-2.1575
X4.0717Y-2.1575
X4.1717Y-2.1575
X4.2717Y-2.1575
X5.074Y-2.1575
X5.174Y-2.1575
X5.274Y-2.1575
X5.374Y-2.1575
X8.0945Y-3.748
X8.0945Y-3.848
X8.0945Y-3.948
X8.0945Y-4.048
X8.0945Y-2.7874
X8.0945Y-2.8874
X8.0945Y-2.9874
X8.0945Y-3.0874
T10
X8.0925Y-2.3693
X8.0925Y-2.5693
T11
X5.1693Y-4.5709
X5.1693Y-5.2087
T12
X3.937Y-5.7874
X8.1496Y-2.0866
X8.1496Y-5.7874
X6.5157Y-2.4331
X6.5157Y-3.2441
T13
X3.7677Y-2.8268
X3.7677Y-3.1102
T4
G00X3.8713Y-3.5004
M15
G01X3.8713Y-3.587
M16
G05
G00X3.9382Y-3.7327
M15
G01X4.0248Y-3.7327
M16
G05
G00X4.0996Y-3.4925
M15
G01X4.0996Y-3.5949
M16
G05
T0
M30
